<svg width="24" height="24" viewBox="0 0 24 24" fill="none" xmlns="http://www.w3.org/2000/svg">
<g id="battery-dead">
<path id="Vector" fill-rule="evenodd" clip-rule="evenodd" d="M3.59531 7.5C2.82643 7.5 2.20312 8.1233 2.20312 8.89219V15.1078C2.20312 15.8767 2.82643 16.5 3.59531 16.5H18.0609C18.8298 16.5 19.4531 15.8767 19.4531 15.1078V8.89219C19.4531 8.1233 18.8298 7.5 18.0609 7.5H3.59531ZM0.703125 8.89219C0.703125 7.29488 1.998 6 3.59531 6H18.0609C19.6582 6 20.9531 7.29488 20.9531 8.89219V15.1078C20.9531 16.7051 19.6582 18 18.0609 18H3.59531C1.998 18 0.703125 16.7051 0.703125 15.1078V8.89219ZM22.4531 9.50016C22.8673 9.50016 23.2031 9.83594 23.2031 10.2502V13.7498C23.2031 14.1641 22.8673 14.4998 22.4531 14.4998C22.0389 14.4998 21.7031 14.1641 21.7031 13.7498V10.2502C21.7031 9.83594 22.0389 9.50016 22.4531 9.50016Z" fill="#373737"/>
</g>
</svg>
