<svg width="24" height="24" viewBox="0 0 24 24" fill="none" xmlns="http://www.w3.org/2000/svg">
<path fill-rule="evenodd" clip-rule="evenodd" d="M3.64219 7.5C2.8733 7.5 2.25 8.1233 2.25 8.89219V15.1078C2.25 15.8767 2.8733 16.5 3.64219 16.5H18.1078C18.8767 16.5 19.5 15.8767 19.5 15.1078V8.89219C19.5 8.1233 18.8767 7.5 18.1078 7.5H3.64219ZM0.75 8.89219C0.75 7.29488 2.04488 6 3.64219 6H18.1078C19.7051 6 21 7.29488 21 8.89219V15.1078C21 16.7051 19.7051 18 18.1078 18H3.64219C2.04488 18 0.75 16.7051 0.75 15.1078V8.89219Z" fill="#4FD1C5"/>
<path fill-rule="evenodd" clip-rule="evenodd" d="M3.26672 9.51234C3.26672 8.99458 3.68645 8.57484 4.20422 8.57484H11.0625C11.5803 8.57484 12 8.99458 12 9.51234V14.4872C12 15.005 11.5803 15.4247 11.0625 15.4247H4.20422C3.68645 15.4247 3.26672 15.005 3.26672 14.4872V9.51234Z" fill="#4FD1C5"/>
<path fill-rule="evenodd" clip-rule="evenodd" d="M22.5 9.50016C22.9142 9.50016 23.25 9.83594 23.25 10.2502V13.7498C23.25 14.1641 22.9142 14.4998 22.5 14.4998C22.0858 14.4998 21.75 14.1641 21.75 13.7498V10.2502C21.75 9.83594 22.0858 9.50016 22.5 9.50016Z" fill="#4FD1C5"/>
</svg>
