<svg width="25" height="25" viewBox="0 0 25 25" fill="none" xmlns="http://www.w3.org/2000/svg">
<path fill-rule="evenodd" clip-rule="evenodd" d="M0 12.5C0 5.59876 5.59876 0 12.5 0C19.4012 0 25 5.59876 25 12.5C25 19.4012 19.4012 25 12.5 25C5.59876 25 0 19.4012 0 12.5ZM12.5 1.92308C6.66085 1.92308 1.92308 6.66085 1.92308 12.5C1.92308 18.3391 6.66085 23.0769 12.5 23.0769C18.3391 23.0769 23.0769 18.3391 23.0769 12.5C23.0769 6.66085 18.3391 1.92308 12.5 1.92308Z" fill="#4FD1C5"/>
<path fill-rule="evenodd" clip-rule="evenodd" d="M12.5 3.84615C13.031 3.84615 13.4615 4.27665 13.4615 4.80769V12.5H18.2692C18.8003 12.5 19.2308 12.9305 19.2308 13.4615C19.2308 13.9926 18.8003 14.4231 18.2692 14.4231H12.5C11.969 14.4231 11.5385 13.9926 11.5385 13.4615V4.80769C11.5385 4.27665 11.969 3.84615 12.5 3.84615Z" fill="#4FD1C5"/>
</svg>
