<svg width="20" height="20" viewBox="0 0 20 20" fill="none" xmlns="http://www.w3.org/2000/svg">
<path d="M6.54183 15.25V4.94539H11.6341C12.3451 4.94539 12.9359 5.08058 13.4066 5.35096C13.8772 5.61133 14.2277 5.97685 14.4581 6.44752C14.6984 6.91819 14.8186 7.46396 14.8186 8.08484C14.8186 8.71573 14.6884 9.27653 14.428 9.76723C14.1676 10.2479 13.7971 10.6234 13.3164 10.8938C12.8458 11.1642 12.28 11.2994 11.619 11.2994H7.96886V15.25H6.54183ZM7.96886 10.0677H11.5289C12.0897 10.0677 12.5353 9.8924 12.8658 9.54191C13.2063 9.19141 13.3765 8.71073 13.3765 8.09986C13.3765 7.68928 13.3064 7.34379 13.1662 7.06339C13.026 6.78299 12.8207 6.56769 12.5504 6.41748C12.28 6.25725 11.9395 6.17713 11.5289 6.17713H7.96886V10.0677Z" fill="#373737"/>
<path fill-rule="evenodd" clip-rule="evenodd" d="M0 9.75C0 4.36704 4.36704 0 9.75 0C15.133 0 19.5 4.36704 19.5 9.75C19.5 15.133 15.133 19.5 9.75 19.5C4.36704 19.5 0 15.133 0 9.75ZM9.75 1.5C5.19546 1.5 1.5 5.19546 1.5 9.75C1.5 14.3045 5.19546 18 9.75 18C14.3045 18 18 14.3045 18 9.75C18 5.19546 14.3045 1.5 9.75 1.5Z" fill="#373737"/>
</svg>
