<svg width="24" height="23" viewBox="0 0 24 23" fill="none" xmlns="http://www.w3.org/2000/svg">
<g id="Icon">
<path id="Vector" d="M20.9462 18.7709L16.8114 14.6361C17.8069 13.3109 18.3443 11.6978 18.3424 10.0403C18.3424 5.80665 14.898 2.36221 10.6643 2.36221C6.43064 2.36221 2.98621 5.80665 2.98621 10.0403C2.98621 14.274 6.43064 17.7185 10.6643 17.7185C12.3218 17.7203 13.9349 17.1829 15.2601 16.1874L19.3949 20.3222C19.6042 20.5093 19.8772 20.6092 20.1579 20.6013C20.4385 20.5935 20.7055 20.4785 20.904 20.28C21.1025 20.0815 21.2175 19.8145 21.2253 19.5339C21.2332 19.2532 21.1333 18.9802 20.9462 18.7709ZM5.17995 10.0403C5.17995 8.95563 5.50161 7.89528 6.10424 6.99338C6.70687 6.09148 7.56341 5.38853 8.56555 4.97344C9.56769 4.55834 10.6704 4.44973 11.7343 4.66134C12.7981 4.87296 13.7754 5.39529 14.5424 6.1623C15.3094 6.9293 15.8317 7.90652 16.0433 8.97039C16.2549 10.0343 16.1463 11.137 15.7312 12.1391C15.3161 13.1413 14.6132 13.9978 13.7113 14.6004C12.8094 15.2031 11.749 15.5247 10.6643 15.5247C9.21032 15.523 7.81636 14.9446 6.78822 13.9164C5.76008 12.8883 5.1817 11.4943 5.17995 10.0403Z" fill="#2D3748"/>
</g>
</svg>
