<svg width="46" height="45" viewBox="0 0 46 45" fill="none" xmlns="http://www.w3.org/2000/svg">
<rect width="45.1025" height="44.9759" rx="15.5294" fill="white"/>
<rect x="2" y="2" width="41.1025" height="40.9759" rx="13.5294" stroke="#4FD1C5" stroke-opacity="0.4" stroke-width="4"/>
<g clip-path="url(#clip0_1334_4540)">
<path d="M16.3585 28.9469C15.4598 28.9468 14.7313 29.7212 14.7312 30.6766C14.7311 31.6319 15.4596 32.4064 16.3583 32.4065C17.257 32.4066 17.9855 31.6322 17.9856 30.6769C17.9856 30.6768 17.9856 30.6767 17.9856 30.6767C17.9846 29.7219 17.2567 28.9481 16.3585 28.9469Z" fill="#4FD1C5"/>
<path d="M28.364 28.9469C27.4653 28.9469 26.7368 29.7213 26.7368 30.6767C26.7368 31.6321 27.4653 32.4065 28.364 32.4065C29.2627 32.4065 29.9912 31.6321 29.9912 30.6767V30.6767C29.9902 29.7218 29.2623 28.948 28.364 28.9469Z" fill="#4FD1C5"/>
<path d="M31.6972 26.7119L29.8577 25.8257C29.7938 25.7946 29.7399 25.7443 29.7027 25.6809L28.1227 23.0006C27.8308 22.5019 27.3168 22.1995 26.7644 22.2014H20.3433C19.8431 22.2028 19.3718 22.4508 19.0675 22.8727L17.0335 25.7124C16.9852 25.7786 16.9179 25.8263 16.8418 25.848L13.4377 26.8357C12.9533 26.9761 12.6159 27.442 12.6121 27.9757V29.2961C12.6121 29.9485 13.1236 30.464 13.7371 30.464H14.0248C14.1267 29.0937 15.2542 28.0706 16.5432 28.1789C17.6907 28.2754 18.602 29.2441 18.6927 30.464H26.0302C26.1317 29.0937 27.259 28.0704 28.548 28.1784C29.6959 28.2745 30.6076 29.2437 30.698 30.464H31.2308C31.8441 30.464 32.3556 29.9485 32.3556 29.2962V27.7891C32.3526 27.3243 32.0955 26.9038 31.6972 26.7119Z" fill="#4FD1C5"/>
<path d="M17.3685 19.1734C18.6565 19.1734 19.6973 18.4501 20.1444 17.2629H24.9572C25.4215 18.1177 26.3664 18.91 27.5704 18.9099C27.5798 18.9099 27.5895 18.9025 27.599 18.9024C29.0444 18.9024 30.1129 18.0244 30.4573 16.5598C30.5057 16.3555 30.3892 16.1482 30.197 16.0967C30.1598 16.0868 30.1212 16.0832 30.0829 16.0862L28.4707 16.2191C28.2945 15.8721 28.2943 15.454 28.4702 15.1067L30.0917 15.25C30.2884 15.2674 30.461 15.112 30.4774 14.9029C30.4811 14.8567 30.4767 14.8102 30.4645 14.7657C30.0966 13.4155 29.0039 12.5829 27.6097 12.5693C26.3219 12.5691 25.2812 13.2741 24.834 14.5087H19.9993C19.4557 13.464 18.4172 12.8212 17.3469 12.8212C15.8899 12.8212 14.8288 13.6996 14.5085 15.183C14.4831 15.2996 14.512 15.4222 14.5862 15.5123C14.6605 15.6036 14.7714 15.6515 14.8846 15.6412L16.4968 15.5071C16.673 15.854 16.6731 16.2718 16.4972 16.6188L14.8758 16.475C14.6791 16.4576 14.5064 16.6129 14.49 16.822C14.4864 16.8682 14.4908 16.9148 14.5029 16.9593C14.8726 18.3159 15.9706 19.1734 17.3685 19.1734Z" fill="#4FD1C5"/>
</g>
<defs>
<clipPath id="clip0_1334_4540">
<rect width="19.7436" height="20.9887" fill="white" transform="translate(12.6121 11.9936)"/>
</clipPath>
</defs>
</svg>
