<svg width="46" height="45" viewBox="0 0 46 45" fill="none" xmlns="http://www.w3.org/2000/svg">
<rect width="45.1025" height="44.9759" rx="15.5294" fill="white"/>
<rect x="2" y="2" width="41.1025" height="40.9759" rx="13.5294" stroke="#4FD1C5" stroke-opacity="0.4" stroke-width="4"/>
<path d="M22.5 11.5312C16.4519 11.5312 11.5312 16.4519 11.5312 22.5C11.5312 28.5481 16.4519 33.4688 22.5 33.4688C28.5481 33.4688 33.4688 28.5481 33.4688 22.5C33.4688 16.4519 28.5481 11.5312 22.5 11.5312ZM22.5 29.25C21.3979 29.25 20.5214 28.7828 20.4038 27.7956C20.4007 27.7661 20.4038 27.7363 20.413 27.708C20.4222 27.6798 20.4373 27.6539 20.4572 27.6319C20.4771 27.6099 20.5014 27.5923 20.5286 27.5804C20.5557 27.5684 20.5851 27.5623 20.6147 27.5625H24.3826C24.4126 27.5623 24.4423 27.5685 24.4696 27.5806C24.497 27.5927 24.5215 27.6106 24.5415 27.6329C24.5614 27.6553 24.5764 27.6816 24.5854 27.7102C24.5944 27.7388 24.5972 27.769 24.5936 27.7988C24.4591 28.7675 23.5905 29.25 22.5 29.25ZM27.668 26.7188H17.332C16.7077 26.7188 16.3828 25.9277 16.7419 25.5059C17.6031 24.486 18.2116 24.0572 18.2116 21.2449C18.2116 18.6678 19.569 17.7534 20.6902 17.3072C20.7673 17.2751 20.8369 17.2271 20.8944 17.1665C20.9519 17.1058 20.996 17.0338 21.024 16.955C21.2186 16.309 21.7691 15.75 22.5 15.75C23.2309 15.75 23.7804 16.309 23.9766 16.9555C24.0047 17.0343 24.049 17.1063 24.1065 17.1669C24.1641 17.2276 24.2337 17.2756 24.3109 17.3078C25.4294 17.7529 26.7894 18.6688 26.7894 21.2454C26.7894 24.0578 27.3974 24.4865 28.2586 25.5064C28.614 25.9277 28.2887 26.7188 27.668 26.7188Z" fill="#4FD1C5"/>
</svg>
