<svg width="46" height="45" viewBox="0 0 46 45" fill="none" xmlns="http://www.w3.org/2000/svg">
<rect width="45.1025" height="44.9759" rx="15.5294" fill="white"/>
<rect x="2" y="2" width="41.1025" height="40.9759" rx="13.5294" stroke="#4FD1C5" stroke-opacity="0.4" stroke-width="4"/>
<path d="M24.6512 14.8361C23.7941 13.9133 22.597 13.4052 21.2756 13.4052C19.9472 13.4052 18.7461 13.9103 17.8929 14.8273C17.0305 15.7545 16.6103 17.0146 16.709 18.3753C16.9045 21.0598 18.9531 23.2436 21.2756 23.2436C23.5981 23.2436 25.6431 21.0603 25.8418 18.3762C25.9418 17.0278 25.5189 15.7703 24.6512 14.8361Z" fill="#4FD1C5"/>
<path d="M29.0275 33.0812H13.5235C13.3205 33.0838 13.1196 33.0413 12.9352 32.9567C12.7508 32.8722 12.5876 32.7477 12.4576 32.5923C12.1713 32.251 12.0559 31.785 12.1413 31.3138C12.5131 29.2573 13.6732 27.5299 15.4967 26.3172C17.1167 25.2407 19.1688 24.6482 21.2755 24.6482C23.3822 24.6482 25.4342 25.2411 27.0542 26.3172C28.8777 27.5295 30.0379 29.2569 30.4096 31.3133C30.495 31.7846 30.3796 32.2506 30.0933 32.5919C29.9633 32.7473 29.8002 32.8719 29.6158 32.9565C29.4314 33.0412 29.2304 33.0837 29.0275 33.0812V33.0812Z" fill="#4FD1C5"/>
<path d="M29.8705 36.2222C30.5583 35.4331 30.7787 34.4532 30.5144 33.5141C30.4016 33.1134 30.4354 32.6666 30.709 32.3528L33.0258 29.6947C33.2667 29.4184 33.6395 29.3079 34.0058 29.3221C34.831 29.3542 35.7406 29.0869 36.3753 28.3587C36.3815 28.3515 36.3822 28.3394 36.3884 28.3322C37.3381 27.2426 37.3783 25.8602 36.5006 24.6382C36.3784 24.4675 36.1456 24.4191 35.9805 24.5301C35.9485 24.5517 35.9205 24.5784 35.8976 24.6092L35.2793 25.449C35.0732 25.7289 34.6964 25.8755 34.4339 25.6476V25.6476C34.1697 25.4184 34.2649 25.0225 34.517 24.7801L35.273 24.0532C35.4153 23.9164 35.4117 23.6841 35.2648 23.5343C35.2324 23.5013 35.1944 23.474 35.1529 23.4539C33.8933 22.8441 32.5477 23.1208 31.6214 24.1628C30.9315 24.9539 30.7027 25.9292 30.9866 26.8848C31.1065 27.2883 31.0753 27.7408 30.7987 28.0582L28.4816 30.7165C28.2365 30.9977 27.8554 31.1059 27.4829 31.0863C26.5442 31.037 25.6482 31.3988 25.0678 32.0646C24.1105 33.163 24.0755 34.5401 24.9832 35.7561C25.0545 35.852 25.1658 35.9107 25.2825 35.914C25.4001 35.918 25.5091 35.8658 25.5758 35.7738L26.1936 34.9333C26.3994 34.6533 26.776 34.5067 27.0384 34.7345V34.7345C27.3023 34.9636 27.2071 35.3592 26.9551 35.6013L26.1984 36.3283C26.0561 36.4651 26.0598 36.6974 26.2066 36.8471C26.2391 36.8802 26.277 36.9075 26.3186 36.9276C27.5841 37.5403 28.952 37.276 29.8705 36.2222Z" fill="#4FD1C5"/>
<path d="M36.0115 28.0036L36.0115 28.0036L36.0082 28.0074C35.9888 28.0301 35.9735 28.052 35.9616 28.0713C35.4501 28.6295 34.72 28.8495 34.0253 28.8225C33.5586 28.8044 33.0184 28.9423 32.6489 29.3662L30.3321 32.0242C29.9107 32.5076 29.8923 33.1492 30.0331 33.6496C30.2499 34.4198 30.075 35.2266 29.4936 35.8937C28.7642 36.7305 27.7122 36.9715 26.692 36.5475L27.3015 35.9619C27.4971 35.7739 27.6453 35.5159 27.6853 35.233C27.7272 34.9364 27.6468 34.6006 27.3662 34.357C27.0872 34.1147 26.7455 34.0813 26.4587 34.1624C26.1852 34.2397 25.9505 34.4199 25.7908 34.6372L25.2877 35.3215C24.9588 34.8335 24.815 34.3411 24.826 33.878C24.8379 33.3735 25.0342 32.8642 25.4448 32.3932C25.9164 31.8521 26.6593 31.5438 27.4567 31.5856C27.9295 31.6105 28.482 31.477 28.8585 31.045L31.1756 28.3867C31.6018 27.8978 31.616 27.2475 31.4659 26.7423C31.2343 25.9627 31.4129 25.1637 31.9967 24.4932C32.7376 23.661 33.7722 23.4166 34.7795 23.8341L34.1704 24.4196C33.9748 24.6077 33.8266 24.866 33.7867 25.1489C33.7449 25.4457 33.8254 25.7816 34.1062 26.0253C34.3852 26.2674 34.7268 26.3009 35.0136 26.2199C35.2873 26.1426 35.5221 25.9626 35.6819 25.7455L36.185 25.0622C36.5047 25.554 36.6441 26.0517 36.63 26.5198C36.6148 27.0283 36.4176 27.5378 36.0115 28.0036ZM35.9983 28.0301L35.9983 28.0302L35.9983 28.0301ZM35.9114 28.1761C35.9111 28.177 35.9112 28.1767 35.9116 28.1756L35.9114 28.1761Z" stroke="#4FD1C5" stroke-opacity="0.4"/>
</svg>
