<svg width="46" height="45" viewBox="0 0 46 45" fill="none" xmlns="http://www.w3.org/2000/svg">
<rect width="45.1025" height="44.9759" rx="15.5294" fill="#4FD1C5"/>
<path d="M36.2363 28.2023L36.2376 28.2007C36.685 27.6875 36.9124 27.113 36.9299 26.5288C36.9474 25.9441 36.755 25.3353 36.3382 24.7549L36.338 24.7546C36.273 24.6639 36.1595 24.6508 36.0921 24.6961C36.079 24.705 36.0676 24.7158 36.0583 24.7282C36.0582 24.7283 36.0582 24.7284 36.0581 24.7285L35.4403 25.5676C35.3146 25.7384 35.1332 25.8744 34.9321 25.9312C34.7257 25.9895 34.4932 25.9639 34.3028 25.7987C34.1112 25.6324 34.0537 25.4043 34.0838 25.1908C34.1131 24.9829 34.2245 24.7838 34.3784 24.6359L35.1344 23.909C35.1883 23.8571 35.1992 23.7531 35.122 23.6744C35.1057 23.6577 35.0865 23.644 35.0658 23.6339L35.0657 23.6339C33.8879 23.0637 32.6389 23.3197 31.7715 24.2949C31.124 25.0379 30.9153 25.9426 31.1783 26.8278C31.3103 27.272 31.2859 27.8036 30.9494 28.1896L28.6323 30.8479C28.3347 31.1894 27.8851 31.3077 27.4725 31.2861C26.5903 31.2397 25.7554 31.5801 25.2186 32.196C24.7672 32.7139 24.5398 33.289 24.5261 33.871C24.5123 34.4535 24.7123 35.0589 25.1435 35.6365L25.1437 35.6368C25.1794 35.6848 25.2344 35.7126 25.2882 35.7141L25.2892 35.7141L25.2892 35.7141C25.3432 35.716 25.3878 35.6924 25.4137 35.6566L25.4146 35.6554L25.4146 35.6554L26.0325 34.8148C26.1581 34.644 26.3393 34.5079 26.5404 34.4511C26.7467 34.3927 26.9792 34.4183 27.1695 34.5835C27.3609 34.7497 27.4184 34.9777 27.3882 35.191C27.3589 35.3989 27.2475 35.5977 27.0937 35.7455L26.3371 36.4724C26.2831 36.5243 26.2722 36.6284 26.3494 36.7071L36.2363 28.2023ZM36.2363 28.2023C36.2217 28.2194 36.2121 28.2361 36.2061 28.2481C35.6209 28.9048 34.7852 29.1523 34.0136 29.1223C33.6071 29.1065 33.1674 29.2279 32.8751 29.5633L30.5582 32.2214C30.2255 32.603 30.1979 33.1277 30.3219 33.5683C30.5672 34.4398 30.365 35.3505 29.7198 36.0908C28.862 37.0748 27.5922 37.322 26.4057 36.7476L26.4057 36.7475M36.2363 28.2023L26.4057 36.7475M26.4057 36.7475C26.3849 36.7375 26.3658 36.7238 26.3494 36.7071L26.4057 36.7475ZM36.1937 28.2777C36.1931 28.2792 36.1934 28.2784 36.1939 28.2772L36.1937 28.2777Z" fill="white" stroke="white" stroke-width="0.4"/>
<path d="M24.6511 14.8361C23.794 13.9133 22.5968 13.4052 21.2755 13.4052C19.9471 13.4052 18.7459 13.9103 17.8928 14.8273C17.0304 15.7545 16.6102 17.0146 16.7088 18.3753C16.9044 21.0598 18.953 23.2436 21.2755 23.2436C23.598 23.2436 25.643 21.0603 25.8417 18.3762C25.9416 17.0278 25.5188 15.7703 24.6511 14.8361Z" fill="white"/>
<path d="M29.0276 33.0811H13.5236C13.3207 33.0837 13.1197 33.0412 12.9353 32.9567C12.7509 32.8721 12.5878 32.7476 12.4577 32.5923C12.1714 32.251 12.056 31.785 12.1415 31.3137C12.5132 29.2573 13.6734 27.5298 15.4968 26.3172C17.1168 25.2406 19.1689 24.6481 21.2756 24.6481C23.3823 24.6481 25.4344 25.2411 27.0543 26.3172C28.8778 27.5294 30.038 29.2568 30.4097 31.3133C30.4952 31.7845 30.3798 32.2505 30.0935 32.5918C29.9634 32.7473 29.8003 32.8718 29.6159 32.9565C29.4315 33.0411 29.2305 33.0837 29.0276 33.0811V33.0811Z" fill="white"/>
</svg>
