<svg width="46" height="45" viewBox="0 0 46 45" fill="none" xmlns="http://www.w3.org/2000/svg">
<rect width="45.1025" height="44.9759" rx="15.5294" fill="#4FD1C5"/>
<path fill-rule="evenodd" clip-rule="evenodd" d="M14.6422 17.5C13.8733 17.5 13.25 18.1233 13.25 18.8922V25.1078C13.25 25.8767 13.8733 26.5 14.6422 26.5H29.1078C29.8767 26.5 30.5 25.8767 30.5 25.1078V18.8922C30.5 18.1233 29.8767 17.5 29.1078 17.5H14.6422ZM11.75 18.8922C11.75 17.2949 13.0449 16 14.6422 16H29.1078C30.7051 16 32 17.2949 32 18.8922V25.1078C32 26.7051 30.7051 28 29.1078 28H14.6422C13.0449 28 11.75 26.7051 11.75 25.1078V18.8922Z" fill="white"/>
<path fill-rule="evenodd" clip-rule="evenodd" d="M14.2667 19.5123C14.2667 18.9946 14.6865 18.5748 15.2042 18.5748H28.5463C29.064 18.5748 29.4838 18.9946 29.4838 19.5123V24.4877C29.4838 25.0054 29.064 25.4252 28.5463 25.4252H15.2042C14.6865 25.4252 14.2667 25.0054 14.2667 24.4877V19.5123Z" fill="white"/>
<path fill-rule="evenodd" clip-rule="evenodd" d="M33.5 19.5002C33.9142 19.5002 34.25 19.8359 34.25 20.2502V23.7498C34.25 24.1641 33.9142 24.4998 33.5 24.4998C33.0858 24.4998 32.75 24.1641 32.75 23.7498V20.2502C32.75 19.8359 33.0858 19.5002 33.5 19.5002Z" fill="white"/>
</svg>
