<svg width="46" height="45" viewBox="0 0 46 45" fill="none" xmlns="http://www.w3.org/2000/svg">
<rect width="45.1025" height="44.9759" rx="15.5294" fill="#4FD1C5"/>
<path d="M33.5001 31H32.9376C32.8878 31 32.8401 30.9802 32.805 30.9451C32.7698 30.9099 32.7501 30.8622 32.7501 30.8125V22.8208C32.7505 22.791 32.7438 22.7614 32.7305 22.7347C32.7173 22.708 32.6978 22.6848 32.6738 22.6671C32.6498 22.6494 32.6219 22.6377 32.5924 22.633C32.563 22.6282 32.5328 22.6306 32.5044 22.6398C32.0743 22.775 31.6276 22.8504 31.1769 22.8639C31.1216 22.8639 31.0691 22.8663 31.0176 22.8663C30.1507 22.8683 29.2978 22.6482 28.5402 22.2269C28.4829 22.195 28.4183 22.1782 28.3527 22.1782C28.2871 22.1782 28.2226 22.195 28.1652 22.2269C27.4078 22.6482 26.555 22.8683 25.6883 22.8663C24.8265 22.8675 23.9791 22.6447 23.2293 22.2198C23.1715 22.1871 23.1061 22.1699 23.0397 22.1699C22.9732 22.1699 22.9079 22.1871 22.8501 22.2198C22.089 22.6463 21.2306 22.8691 20.3582 22.8667C19.4906 22.8673 18.6378 22.6411 17.8846 22.2105C17.8263 22.1773 17.7604 22.1599 17.6933 22.1599C17.6263 22.1599 17.5604 22.1773 17.5021 22.2105C16.7489 22.6411 15.8961 22.8673 15.0285 22.8667C14.9774 22.8667 14.9258 22.8667 14.8705 22.8644H14.8677C14.4012 22.8504 13.9391 22.77 13.4952 22.6258C13.4671 22.6167 13.4373 22.6144 13.4081 22.619C13.3789 22.6237 13.3513 22.6351 13.3274 22.6525C13.3035 22.6699 13.284 22.6926 13.2706 22.7189C13.2571 22.7453 13.2501 22.7744 13.2501 22.8039V30.8125C13.2501 30.8622 13.2303 30.9099 13.1951 30.9451C13.16 30.9802 13.1123 31 13.0626 31H12.5235C12.1185 31 11.7688 31.3112 11.751 31.7162C11.7464 31.8175 11.7624 31.9186 11.798 32.0134C11.8336 32.1083 11.888 32.195 11.9581 32.2682C12.0281 32.3414 12.1122 32.3997 12.2053 32.4396C12.2985 32.4794 12.3987 32.5 12.5001 32.5H33.4766C33.8816 32.5 34.2313 32.1888 34.2491 31.7838C34.2537 31.6825 34.2377 31.5814 34.2021 31.4866C34.1665 31.3917 34.1121 31.305 34.0421 31.2318C33.9721 31.1586 33.888 31.1003 33.7948 31.0604C33.7016 31.0206 33.6014 31 33.5001 31ZM21.5001 27.8125C21.5001 27.8622 21.4803 27.9099 21.4451 27.9451C21.41 27.9802 21.3623 28 21.3126 28H17.1876C17.1378 28 17.0901 27.9802 17.055 27.9451C17.0198 27.9099 17.0001 27.8622 17.0001 27.8125V24.8125C17.0001 24.6633 17.0593 24.5202 17.1648 24.4148C17.2703 24.3093 17.4134 24.25 17.5626 24.25H20.9376C21.0868 24.25 21.2298 24.3093 21.3353 24.4148C21.4408 24.5202 21.5001 24.6633 21.5001 24.8125V27.8125ZM28.8126 31H25.4376C25.3878 31 25.3401 30.9802 25.305 30.9451C25.2698 30.9099 25.2501 30.8622 25.2501 30.8125V24.8125C25.2501 24.6633 25.3093 24.5202 25.4148 24.4148C25.5203 24.3093 25.6634 24.25 25.8126 24.25H28.4376C28.5868 24.25 28.7298 24.3093 28.8353 24.4148C28.9408 24.5202 29.0001 24.6633 29.0001 24.8125V30.8125C29.0001 30.8622 28.9803 30.9099 28.9451 30.9451C28.91 30.9802 28.8623 31 28.8126 31Z" fill="white"/>
<path d="M34.0893 17.9819L32.0774 13.3652C31.5505 12.2322 30.3473 11.5 29.0118 11.5H16.986C15.6505 11.5 14.4473 12.2322 13.9204 13.3652L11.9085 17.9819C11.4866 18.8917 12.044 19.8259 12.0444 19.8264L12.0576 19.8475C12.0805 19.8841 12.1213 19.9413 12.1462 19.9778C12.1485 19.9806 12.1504 19.9839 12.1527 19.9872L12.3871 20.2708C12.3959 20.2815 12.4053 20.2917 12.4152 20.3012L12.6496 20.5277L12.6693 20.5445C12.8069 20.6625 12.9542 20.7688 13.1094 20.8623V20.8647C13.6196 21.1737 14.2008 21.346 14.7969 21.3648C14.8354 21.3648 14.8738 21.3648 14.9127 21.3648C15.8147 21.3665 16.6839 21.0263 17.3451 20.4128L17.3605 20.3983C17.4296 20.3332 17.5209 20.297 17.6158 20.297C17.7107 20.297 17.8019 20.3332 17.871 20.3983L17.8865 20.4128C18.5547 21.0253 19.4283 21.3651 20.3348 21.3651C21.2412 21.3651 22.1148 21.0253 22.783 20.4128C22.8524 20.3486 22.9433 20.313 23.0378 20.313C23.1323 20.313 23.2232 20.3486 23.2926 20.4128C23.9588 21.0234 24.8292 21.3629 25.7329 21.3649C26.6366 21.3669 27.5084 21.0312 28.1774 20.4236C28.2457 20.3603 28.3353 20.3252 28.4284 20.3252C28.5215 20.3252 28.6112 20.3603 28.6794 20.4236C29.3491 21.0349 30.2248 21.371 31.1315 21.3648H31.2482C31.8294 21.3431 32.3949 21.1703 32.8888 20.8633C32.9333 20.8366 32.976 20.8084 33.0191 20.7803C33.3523 20.5557 33.6422 20.2729 33.8751 19.9455L33.9566 19.8222C33.9648 19.8097 33.9723 19.7966 33.9791 19.7828C34.0569 19.6244 34.4741 18.8097 34.0893 17.9819Z" fill="white"/>
</svg>
