<svg width="46" height="45" viewBox="0 0 46 45" fill="none" xmlns="http://www.w3.org/2000/svg">
<rect width="45.1025" height="44.9759" rx="15.5294" fill="white"/>
<rect x="2" y="2" width="41.1025" height="40.9759" rx="13.5294" stroke="#4FD1C5" stroke-opacity="0.4" stroke-width="4"/>
<path d="M23 12.25C17.6155 12.25 13.25 16.6155 13.25 22C13.25 27.3845 17.6155 31.75 23 31.75C28.3845 31.75 32.75 27.3845 32.75 22C32.75 16.6155 28.3845 12.25 23 12.25ZM27.5 23.5H23C22.8011 23.5 22.6103 23.421 22.4697 23.2803C22.329 23.1397 22.25 22.9489 22.25 22.75V16C22.25 15.8011 22.329 15.6103 22.4697 15.4697C22.6103 15.329 22.8011 15.25 23 15.25C23.1989 15.25 23.3897 15.329 23.5303 15.4697C23.671 15.6103 23.75 15.8011 23.75 16V22H27.5C27.6989 22 27.8897 22.079 28.0303 22.2197C28.171 22.3603 28.25 22.5511 28.25 22.75C28.25 22.9489 28.171 23.1397 28.0303 23.2803C27.8897 23.421 27.6989 23.5 27.5 23.5Z" fill="#4FD1C5"/>
</svg>
