<svg width="46" height="45" viewBox="0 0 46 45" fill="none" xmlns="http://www.w3.org/2000/svg">
<rect width="45.1025" height="44.9759" rx="15.5294" fill="white"/>
<rect x="2" y="2" width="41.1025" height="40.9759" rx="13.5294" stroke="#4FD1C5" stroke-opacity="0.4" stroke-width="4"/>
<path d="M30.7769 21.3144C30.7539 21.2181 30.7078 21.1302 30.6434 21.0596C30.5789 20.989 30.4984 20.9382 30.4099 20.9124L24.915 19.3124C24.3556 19.1495 24.0442 18.5285 24.2503 17.9866L27.2075 10.2115C27.2494 10.093 27.2533 9.96256 27.2187 9.84129C27.184 9.72003 27.1129 9.61496 27.0166 9.543C26.9203 9.47104 26.8046 9.43638 26.688 9.44461C26.5714 9.45283 26.4607 9.50345 26.3738 9.58833L14.6737 22.4289C14.6068 22.4976 14.5581 22.5845 14.5324 22.6805C14.5067 22.7766 14.5051 22.8783 14.5277 22.9753C14.5503 23.0722 14.5963 23.1609 14.6609 23.2321C14.7255 23.3033 14.8064 23.3545 14.8953 23.3804L20.3187 24.9596C20.8688 25.1197 21.181 25.7243 20.9917 26.2626L18.2243 34.1329C18.1858 34.2519 18.185 34.3816 18.2221 34.5012C18.2592 34.6208 18.3321 34.7235 18.429 34.7929C18.526 34.8623 18.6416 34.8945 18.7574 34.8843C18.8731 34.8741 18.9824 34.8221 19.0679 34.7367L30.6361 21.8595C30.7018 21.7903 30.7494 21.7034 30.7742 21.6076C30.7989 21.5119 30.7999 21.4107 30.7769 21.3144Z" fill="#4FD1C5"/>
</svg>
