<svg width="46" height="45" viewBox="0 0 46 45" fill="none" xmlns="http://www.w3.org/2000/svg">
<path d="M0 15.5294C0 6.95277 6.95275 0 15.5294 0H29.5731C38.1498 0 45.1025 6.95275 45.1025 15.5294V29.4465C45.1025 38.0231 38.1498 44.9759 29.5731 44.9759H15.5294C6.95275 44.9759 0 38.0231 0 29.4465V15.5294Z" fill="#4FD1C5"/>
<g clip-path="url(#clip0_1333_4495)">
<path d="M22.7963 15.6929C22.7307 15.6303 22.6434 15.5954 22.5527 15.5954C22.462 15.5954 22.3747 15.6303 22.3091 15.6929L14.2004 23.4174C14.1659 23.4502 14.1385 23.4897 14.1198 23.5334C14.1011 23.5771 14.0915 23.6242 14.0916 23.6717L14.0903 30.9214C14.0903 31.2942 14.2388 31.6517 14.5031 31.9152C14.7674 32.1788 15.1259 32.3269 15.4997 32.3269H19.7325C19.9194 32.3269 20.0986 32.2529 20.2308 32.1211C20.3629 31.9893 20.4372 31.8105 20.4372 31.6242V25.6508C20.4372 25.5576 20.4743 25.4682 20.5404 25.4023C20.6065 25.3364 20.6961 25.2994 20.7896 25.2994H24.3132C24.4066 25.2994 24.4963 25.3364 24.5624 25.4023C24.6284 25.4682 24.6656 25.5576 24.6656 25.6508V31.6242C24.6656 31.8105 24.7398 31.9893 24.872 32.1211C25.0041 32.2529 25.1834 32.3269 25.3703 32.3269H29.6013C29.9751 32.3269 30.3336 32.1788 30.5979 31.9152C30.8622 31.6517 31.0107 31.2942 31.0107 30.9214V23.6717C31.0108 23.6242 31.0012 23.5771 30.9825 23.5334C30.9638 23.4897 30.9364 23.4502 30.9019 23.4174L22.7963 15.6929Z" fill="white"/>
<path d="M32.8986 21.9688L29.604 18.8257V14.0563C29.604 13.8699 29.5298 13.6911 29.3976 13.5593C29.2654 13.4275 29.0862 13.3535 28.8993 13.3535H26.7851C26.5982 13.3535 26.4189 13.4275 26.2868 13.5593C26.1546 13.6911 26.0804 13.8699 26.0804 14.0563V15.4617L23.5293 13.0294C23.2905 12.7887 22.9355 12.6508 22.5519 12.6508C22.1696 12.6508 21.8155 12.7887 21.5767 13.0298L12.2083 21.9679C11.9343 22.2314 11.9 22.6649 12.1493 22.9504C12.2119 23.0225 12.2885 23.0811 12.3745 23.1227C12.4606 23.1642 12.5542 23.1879 12.6497 23.1923C12.7452 23.1966 12.8406 23.1816 12.9301 23.148C13.0196 23.1144 13.1013 23.063 13.1702 22.997L22.3096 14.2882C22.3752 14.2256 22.4625 14.1907 22.5532 14.1907C22.644 14.1907 22.7312 14.2256 22.7968 14.2882L31.9371 22.997C32.0717 23.1257 32.2521 23.196 32.4386 23.1924C32.6251 23.1887 32.8026 23.1115 32.9321 22.9776C33.2025 22.6983 33.1801 22.2371 32.8986 21.9688Z" fill="white"/>
</g>
<defs>
<clipPath id="clip0_1333_4495">
<rect width="22.5513" height="22.4879" fill="white" transform="translate(11.2757 11.244)"/>
</clipPath>
</defs>
</svg>
