<svg width="46" height="46" viewBox="0 0 46 46" fill="none" xmlns="http://www.w3.org/2000/svg">
<path d="M0 16.5197C0 7.94307 6.95275 0.990295 15.5294 0.990295H29.5731C38.1498 0.990295 45.1025 7.94305 45.1025 16.5197V30.4368C45.1025 39.0134 38.1498 45.9662 29.5731 45.9662H15.5294C6.95275 45.9662 0 39.0134 0 30.4368V16.5197Z" fill="white"/>
<path d="M15.5294 2.9903H29.5731C37.0452 2.9903 43.1025 9.04762 43.1025 16.5197V30.4368C43.1025 37.9088 37.0452 43.9662 29.5731 43.9662H15.5294C8.05732 43.9662 2 37.9089 2 30.4368V16.5197C2 9.04763 8.05733 2.9903 15.5294 2.9903Z" stroke="#4FD1C5" stroke-opacity="0.4" stroke-width="4"/>
<g clip-path="url(#clip0_1297_4442)">
<path d="M22.8509 16.6832C22.7853 16.6206 22.6981 16.5857 22.6073 16.5857C22.5166 16.5857 22.4293 16.6206 22.3638 16.6832L14.255 24.4077C14.2206 24.4405 14.1932 24.48 14.1745 24.5237C14.1558 24.5674 14.1462 24.6145 14.1462 24.662L14.1449 31.9117C14.1449 32.2845 14.2934 32.642 14.5577 32.9055C14.822 33.1691 15.1805 33.3172 15.5544 33.3172H19.7871C19.974 33.3172 20.1533 33.2432 20.2854 33.1114C20.4176 32.9796 20.4918 32.8008 20.4918 32.6145V26.6411C20.4918 26.5479 20.529 26.4585 20.595 26.3926C20.6611 26.3267 20.7507 26.2897 20.8442 26.2897H24.3678C24.4613 26.2897 24.5509 26.3267 24.617 26.3926C24.6831 26.4585 24.7202 26.5479 24.7202 26.6411V32.6145C24.7202 32.8008 24.7944 32.9796 24.9266 33.1114C25.0588 33.2432 25.238 33.3172 25.4249 33.3172H29.6559C30.0297 33.3172 30.3882 33.1691 30.6526 32.9055C30.9169 32.642 31.0654 32.2845 31.0654 31.9117V24.662C31.0654 24.6145 31.0558 24.5674 31.0371 24.5237C31.0184 24.48 30.991 24.4405 30.9566 24.4077L22.8509 16.6832Z" fill="#4FD1C5"/>
<path d="M32.9533 22.9591L29.6587 19.816V15.0465C29.6587 14.8602 29.5844 14.6814 29.4523 14.5496C29.3201 14.4178 29.1408 14.3438 28.9539 14.3438H26.8398C26.6529 14.3438 26.4736 14.4178 26.3414 14.5496C26.2093 14.6814 26.135 14.8602 26.135 15.0465V16.452L23.5839 14.0197C23.3452 13.779 22.9902 13.6411 22.6066 13.6411C22.2242 13.6411 21.8701 13.779 21.6314 14.0201L12.2629 22.9582C11.989 23.2217 11.9546 23.6552 12.2039 23.9407C12.2665 24.0128 12.3432 24.0714 12.4292 24.113C12.5152 24.1545 12.6089 24.1782 12.7044 24.1826C12.7999 24.1869 12.8953 24.1719 12.9848 24.1383C13.0743 24.1047 13.156 24.0533 13.2249 23.9873L22.3643 15.2785C22.4299 15.2159 22.5171 15.181 22.6079 15.181C22.6986 15.181 22.7859 15.2159 22.8514 15.2785L31.9917 23.9873C32.1264 24.116 32.3067 24.1863 32.4932 24.1827C32.6798 24.179 32.8572 24.1018 32.9867 23.9679C33.2572 23.6886 33.2347 23.2274 32.9533 22.9591Z" fill="#4FD1C5"/>
</g>
<defs>
<clipPath id="clip0_1297_4442">
<rect width="22.5513" height="22.4879" fill="white" transform="translate(11.3303 12.2343)"/>
</clipPath>
</defs>
</svg>
