<svg width="46" height="45" viewBox="0 0 46 45" fill="none" xmlns="http://www.w3.org/2000/svg">
<rect width="45.1025" height="44.9759" rx="15.5294" fill="#4FD1C5"/>
<path d="M30.1274 21.0828H23.961C23.4003 21.0828 22.8625 20.8606 22.4661 20.4653C22.0696 20.0699 21.8468 19.5337 21.8468 18.9745V12.8255C21.8468 12.7789 21.8283 12.7342 21.7952 12.7012C21.7622 12.6683 21.7174 12.6498 21.6706 12.6498H17.6185C16.8708 12.6498 16.1538 12.9459 15.6252 13.4731C15.0966 14.0003 14.7996 14.7153 14.7996 15.4608V29.5157C14.7996 30.2613 15.0966 30.9762 15.6252 31.5034C16.1538 32.0306 16.8708 32.3267 17.6185 32.3267H27.4846C28.2323 32.3267 28.9493 32.0306 29.4779 31.5034C30.0066 30.9762 30.3035 30.2613 30.3035 29.5157V21.2584C30.3035 21.2118 30.285 21.1672 30.2519 21.1342C30.2189 21.1013 30.1741 21.0828 30.1274 21.0828Z" fill="white"/>
<path d="M29.7407 19.5286L23.4065 13.2122C23.3942 13.2 23.3786 13.1917 23.3615 13.1883C23.3445 13.185 23.3268 13.1867 23.3108 13.1933C23.2947 13.1999 23.281 13.2111 23.2713 13.2255C23.2616 13.2399 23.2564 13.2568 23.2563 13.2741V18.9756C23.2563 19.162 23.3306 19.3407 23.4628 19.4725C23.5949 19.6043 23.7742 19.6784 23.9611 19.6784H29.6786C29.696 19.6783 29.7129 19.6731 29.7274 19.6634C29.7418 19.6538 29.753 19.6401 29.7596 19.6241C29.7663 19.6081 29.768 19.5905 29.7647 19.5735C29.7613 19.5565 29.753 19.5409 29.7407 19.5286V19.5286Z" fill="white"/>
</svg>
