<svg width="46" height="45" viewBox="0 0 46 45" fill="none" xmlns="http://www.w3.org/2000/svg">
<rect x="0.0800781" width="45.1025" height="44.9759" rx="15.5294" fill="white"/>
<rect x="2.08008" y="2" width="41.1025" height="40.9759" rx="13.5294" stroke="#4FD1C5" stroke-opacity="0.4" stroke-width="4"/>
<path d="M30.2074 21.0828H24.0411C23.4804 21.0828 22.9426 20.8606 22.5461 20.4653C22.1496 20.0699 21.9269 19.5337 21.9269 18.9745V12.8255C21.9269 12.7789 21.9083 12.7342 21.8753 12.7012C21.8423 12.6683 21.7974 12.6498 21.7507 12.6498H17.6985C16.9509 12.6498 16.2339 12.9459 15.7053 13.4731C15.1766 14.0003 14.8796 14.7153 14.8796 15.4608V29.5157C14.8796 30.2613 15.1766 30.9762 15.7053 31.5034C16.2339 32.0306 16.9509 32.3267 17.6985 32.3267H27.5647C28.3123 32.3267 29.0293 32.0306 29.558 31.5034C30.0866 30.9762 30.3836 30.2613 30.3836 29.5157V21.2584C30.3836 21.2118 30.3651 21.1672 30.332 21.1342C30.299 21.1013 30.2542 21.0828 30.2074 21.0828Z" fill="#4FD1C5"/>
<path d="M29.8208 19.5286L23.4866 13.2122C23.4743 13.2 23.4586 13.1917 23.4416 13.1883C23.4246 13.185 23.4069 13.1867 23.3909 13.1933C23.3748 13.1999 23.3611 13.2111 23.3514 13.2255C23.3417 13.2399 23.3365 13.2568 23.3364 13.2741V18.9756C23.3364 19.162 23.4107 19.3407 23.5428 19.4725C23.675 19.6043 23.8542 19.6784 24.0412 19.6784H29.7587C29.7761 19.6783 29.793 19.6731 29.8074 19.6634C29.8219 19.6538 29.8331 19.6401 29.8397 19.6241C29.8464 19.6081 29.8481 19.5905 29.8447 19.5735C29.8414 19.5565 29.833 19.5409 29.8208 19.5286V19.5286Z" fill="#4FD1C5"/>
</svg>
