<svg width="46" height="45" viewBox="0 0 46 45" fill="none" xmlns="http://www.w3.org/2000/svg">
<rect width="45.1025" height="44.9759" rx="15.5294" fill="#4FD1C5"/>
<path d="M25.9271 14.0803C25.07 13.1575 23.8728 12.6493 22.5515 12.6493C21.2231 12.6493 20.0219 13.1544 19.1688 14.0715C18.3064 14.9987 17.8862 16.2588 17.9848 17.6195C18.1804 20.304 20.229 22.4878 22.5515 22.4878C24.874 22.4878 26.919 20.3044 27.1177 17.6204C27.2176 16.272 26.7948 15.0145 25.9271 14.0803Z" fill="white"/>
<path d="M30.3033 32.3253H14.7994C14.5964 32.3279 14.3955 32.2854 14.2111 32.2009C14.0267 32.1163 13.8635 31.9918 13.7335 31.8365C13.4472 31.4952 13.3318 31.0292 13.4172 30.5579C13.789 28.5015 14.9491 26.774 16.7726 25.5614C18.3926 24.4848 20.4447 23.8923 22.5513 23.8923C24.658 23.8923 26.7101 24.4853 28.3301 25.5614C30.1536 26.7736 31.3137 28.501 31.6855 30.5575C31.7709 31.0287 31.6555 31.4947 31.3692 31.836C31.2392 31.9915 31.0761 32.116 30.8917 32.2007C30.7073 32.2853 30.5063 32.3279 30.3033 32.3253V32.3253Z" fill="white"/>
</svg>
